<svg xmlns="http://www.w3.org/2000/svg" xmlns:xlink="http://www.w3.org/1999/xlink" width="500" zoomAndPan="magnify" viewBox="0 0 375 374.999991" height="500" preserveAspectRatio="xMidYMid meet" version="1.0"><defs><g/></defs><g fill="#58a6ff" fill-opacity="1"><g transform="translate(140.261714, 141.68953)"><g><path d="M 0.875 -41.0625 C 1.332031 -41.582031 2.179688 -41.757812 3.421875 -41.59375 C 5.109375 -41.382812 6.882812 -41.28125 8.75 -41.28125 C 12.601562 -41.28125 16.441406 -41.640625 20.265625 -42.359375 C 24.078125 -43.085938 27.875 -43.835938 31.65625 -44.609375 C 32.90625 -44.859375 34.148438 -45.210938 35.390625 -45.671875 C 36.617188 -46.097656 37.863281 -46.394531 39.125 -46.5625 C 40.582031 -46.75 41.660156 -46.335938 42.359375 -45.328125 C 43.171875 -44.140625 43.785156 -42.226562 44.203125 -39.59375 C 44.617188 -36.957031 44.546875 -35.007812 43.984375 -33.75 C 43.609375 -32.976562 42.960938 -32.375 42.046875 -31.9375 C 41.140625 -31.5 40.320312 -31.125 39.59375 -30.8125 C 38.613281 -30.394531 37.546875 -29.953125 36.390625 -29.484375 C 35.222656 -29.003906 34.3125 -28.328125 33.65625 -27.453125 C 32.96875 -26.554688 32.769531 -25.289062 33.0625 -23.65625 C 33.351562 -22 33.5625 -20.609375 33.6875 -19.484375 C 33.925781 -17.160156 34.242188 -14.710938 34.640625 -12.140625 C 35.015625 -9.566406 35.171875 -7.128906 35.109375 -4.828125 C 35.066406 -3.578125 34.660156 -2.671875 33.890625 -2.109375 C 32.796875 -1.328125 31.441406 -0.78125 29.828125 -0.46875 C 28.203125 -0.15625 26.738281 0 25.4375 0 C 24.894531 0 24.300781 -0.0820312 23.65625 -0.25 C 23.007812 -0.394531 22.570312 -0.75 22.34375 -1.3125 C 21.914062 -2.28125 21.585938 -3.160156 21.359375 -3.953125 C 20.566406 -6.484375 20.015625 -9.066406 19.703125 -11.703125 C 19.367188 -14.335938 18.890625 -16.941406 18.265625 -19.515625 C 17.984375 -20.804688 17.5625 -22.164062 17 -23.59375 C 16.6875 -24.40625 15.976562 -24.914062 14.875 -25.125 C 13.78125 -25.332031 12.878906 -25.46875 12.171875 -25.53125 C 10.835938 -25.632812 9.457031 -25.71875 8.03125 -25.78125 C 6.601562 -25.820312 5.285156 -26.117188 4.078125 -26.671875 C 3.015625 -27.148438 2.359375 -27.773438 2.109375 -28.546875 C 1.847656 -29.316406 1.59375 -30.207031 1.34375 -31.21875 C 0.863281 -32.988281 0.582031 -34.804688 0.5 -36.671875 C 0.457031 -37.171875 0.40625 -37.90625 0.34375 -38.875 C 0.257812 -39.832031 0.4375 -40.5625 0.875 -41.0625 Z M 0.875 -41.0625 "/></g></g></g><g fill="#58a6ff" fill-opacity="1"><g transform="translate(187.32714, 141.68953)"><g><path d="M 2.390625 -27.734375 C 3.203125 -29.347656 4.117188 -30.914062 5.140625 -32.4375 C 6.128906 -33.925781 7.289062 -35.328125 8.625 -36.640625 C 9.207031 -37.222656 9.773438 -37.757812 10.328125 -38.25 C 13.898438 -41.445312 17.96875 -43.660156 22.53125 -44.890625 C 26.457031 -45.941406 30.226562 -45.953125 33.84375 -44.921875 C 35.582031 -44.421875 37.300781 -43.492188 39 -42.140625 C 40.707031 -40.796875 41.992188 -39.316406 42.859375 -37.703125 C 43.421875 -36.640625 43.835938 -35.503906 44.109375 -34.296875 C 44.359375 -33.097656 44.546875 -31.90625 44.671875 -30.71875 C 45.003906 -26.632812 44.628906 -22.929688 43.546875 -19.609375 C 42.878906 -17.617188 41.914062 -15.679688 40.65625 -13.796875 C 39.363281 -11.878906 38.035156 -10.175781 36.671875 -8.6875 C 34.617188 -6.445312 32.285156 -4.554688 29.671875 -3.015625 C 27.035156 -1.484375 24.191406 -0.5625 21.140625 -0.25 C 18.066406 0 15.097656 -0.375 12.234375 -1.375 C 10.054688 -2.113281 8.03125 -3.171875 6.15625 -4.546875 C 4.269531 -5.890625 2.820312 -7.625 1.8125 -9.75 C 0.832031 -11.78125 0.28125 -14.164062 0.15625 -16.90625 C 0.0078125 -20.863281 0.753906 -24.472656 2.390625 -27.734375 Z M 14.5625 -21.109375 C 14.5625 -19.085938 15.691406 -17 17.953125 -14.84375 C 20.203125 -12.6875 22.476562 -12.191406 24.78125 -13.359375 C 26.269531 -14.097656 27.171875 -15.125 27.484375 -16.4375 C 27.796875 -17.738281 27.734375 -19.109375 27.296875 -20.546875 C 26.773438 -22.160156 25.820312 -23.5 24.4375 -24.5625 C 23.039062 -25.59375 21.617188 -26.203125 20.171875 -26.390625 C 18.691406 -26.578125 17.394531 -26.269531 16.28125 -25.46875 C 15.132812 -24.632812 14.5625 -23.179688 14.5625 -21.109375 Z M 14.5625 -21.109375 "/></g></g></g><g fill="#58a6ff" fill-opacity="1"><g transform="translate(139.769527, 230.939524)"><g><path d="M 2.390625 -27.734375 C 3.203125 -29.347656 4.117188 -30.914062 5.140625 -32.4375 C 6.128906 -33.925781 7.289062 -35.328125 8.625 -36.640625 C 9.207031 -37.222656 9.773438 -37.757812 10.328125 -38.25 C 13.898438 -41.445312 17.96875 -43.660156 22.53125 -44.890625 C 26.457031 -45.941406 30.226562 -45.953125 33.84375 -44.921875 C 35.582031 -44.421875 37.300781 -43.492188 39 -42.140625 C 40.707031 -40.796875 41.992188 -39.316406 42.859375 -37.703125 C 43.421875 -36.640625 43.835938 -35.503906 44.109375 -34.296875 C 44.359375 -33.097656 44.546875 -31.90625 44.671875 -30.71875 C 45.003906 -26.632812 44.628906 -22.929688 43.546875 -19.609375 C 42.878906 -17.617188 41.914062 -15.679688 40.65625 -13.796875 C 39.363281 -11.878906 38.035156 -10.175781 36.671875 -8.6875 C 34.617188 -6.445312 32.285156 -4.554688 29.671875 -3.015625 C 27.035156 -1.484375 24.191406 -0.5625 21.140625 -0.25 C 18.066406 0 15.097656 -0.375 12.234375 -1.375 C 10.054688 -2.113281 8.03125 -3.171875 6.15625 -4.546875 C 4.269531 -5.890625 2.820312 -7.625 1.8125 -9.75 C 0.832031 -11.78125 0.28125 -14.164062 0.15625 -16.90625 C 0.0078125 -20.863281 0.753906 -24.472656 2.390625 -27.734375 Z M 14.5625 -21.109375 C 14.5625 -19.085938 15.691406 -17 17.953125 -14.84375 C 20.203125 -12.6875 22.476562 -12.191406 24.78125 -13.359375 C 26.269531 -14.097656 27.171875 -15.125 27.484375 -16.4375 C 27.796875 -17.738281 27.734375 -19.109375 27.296875 -20.546875 C 26.773438 -22.160156 25.820312 -23.5 24.4375 -24.5625 C 23.039062 -25.59375 21.617188 -26.203125 20.171875 -26.390625 C 18.691406 -26.578125 17.394531 -26.269531 16.28125 -25.46875 C 15.132812 -24.632812 14.5625 -23.179688 14.5625 -21.109375 Z M 14.5625 -21.109375 "/></g></g></g><g fill="#58a6ff" fill-opacity="1"><g transform="translate(187.17736, 230.939524)"><g><path d="M 16.59375 -46.40625 C 16.90625 -46.21875 17.21875 -46.003906 17.53125 -45.765625 C 18.144531 -45.222656 18.753906 -44.617188 19.359375 -43.953125 C 19.960938 -43.285156 20.546875 -42.617188 21.109375 -41.953125 C 23.992188 -38.347656 26.878906 -34.242188 29.765625 -29.640625 C 30.109375 -31.691406 30.5 -33.609375 30.9375 -35.390625 C 31.351562 -37.148438 31.8125 -38.632812 32.3125 -39.84375 C 32.914062 -41.351562 33.566406 -42.554688 34.265625 -43.453125 C 34.828125 -44.140625 35.460938 -44.585938 36.171875 -44.796875 C 37.023438 -45.003906 38 -45.066406 39.09375 -44.984375 C 40.175781 -44.878906 41.140625 -44.734375 41.984375 -44.546875 C 43.210938 -44.234375 44.148438 -43.765625 44.796875 -43.140625 C 45.441406 -42.515625 45.546875 -41.457031 45.109375 -39.96875 C 43.566406 -34.757812 42.476562 -28.96875 41.84375 -22.59375 C 41.175781 -16.226562 41.242188 -10.492188 42.046875 -5.390625 C 42.128906 -4.847656 42.222656 -4.296875 42.328125 -3.734375 C 42.429688 -3.148438 42.460938 -2.597656 42.421875 -2.078125 C 42.316406 -1.085938 41.757812 -0.457031 40.75 -0.1875 C 39.707031 0.101562 38.554688 0.1875 37.296875 0.0625 C 36.003906 -0.0390625 34.757812 -0.28125 33.5625 -0.65625 C 32.332031 -1.03125 31.476562 -1.40625 31 -1.78125 C 30.195312 -2.375 29.617188 -3.179688 29.265625 -4.203125 C 28.910156 -5.222656 28.660156 -6.21875 28.515625 -7.1875 C 26.773438 -12.101562 24.832031 -16.554688 22.6875 -20.546875 C 20.53125 -24.503906 18.019531 -28.601562 15.15625 -32.84375 C 14.425781 -28.644531 13.984375 -24.390625 13.828125 -20.078125 C 13.640625 -15.742188 13.832031 -11.769531 14.40625 -8.15625 C 14.46875 -7.613281 14.5625 -7.0625 14.6875 -6.5 C 14.789062 -5.925781 14.820312 -5.367188 14.78125 -4.828125 C 14.550781 -2.835938 12.832031 -2.109375 9.625 -2.640625 C 6.40625 -3.160156 4.304688 -3.796875 3.328125 -4.546875 C 2.453125 -5.191406 1.851562 -6.070312 1.53125 -7.1875 C 1.175781 -8.289062 0.9375 -9.335938 0.8125 -10.328125 C 0.519531 -12.285156 0.4375 -14.75 0.5625 -17.71875 C 0.664062 -20.65625 0.914062 -23.679688 1.3125 -26.796875 C 1.6875 -29.910156 2.171875 -32.890625 2.765625 -35.734375 C 3.347656 -38.578125 3.984375 -40.859375 4.671875 -42.578125 C 5.210938 -44.078125 5.851562 -45.289062 6.59375 -46.21875 C 7.15625 -46.90625 7.800781 -47.34375 8.53125 -47.53125 C 9.382812 -47.757812 10.347656 -47.832031 11.421875 -47.75 C 12.503906 -47.644531 13.476562 -47.5 14.34375 -47.3125 C 15.40625 -47 16.15625 -46.695312 16.59375 -46.40625 Z M 16.59375 -46.40625 "/></g></g></g></svg>